<?xml version="1.0" encoding="UTF-8"?>
<svg width="285px" height="143px" viewBox="0 0 285 143" version="1.1" xmlns="http://www.w3.org/2000/svg" xmlns:xlink="http://www.w3.org/1999/xlink">
    <!-- Generator: Sketch 53.2 (72643) - https://sketchapp.com -->
    <title>Combined Shape</title>
    <desc>Created with Sketch.</desc>
    <g id="Page-1" stroke="none" stroke-width="1" fill="none" fill-rule="evenodd">
        <g id="Home-Copy" transform="translate(-47.000000, -281.000000)" fill="#FFFFFF" fill-rule="nonzero">
            <path d="M247.04,305.04 C247.15,307.23 247.31,309.42 247.34,311.61 C247.4,314.77 247.34,317.93 247.34,321.09 C247.34,329.03 248.94,330.88 256.93,332.22 C257.67,338.53 250.59,338.56 248.31,343.28 C248.31,352.28 248.24,362.03 248.39,371.8 C248.39,373.09 249.28,375.12 250.24,375.46 C251.785809,375.85426 253.426393,375.570522 254.75,374.68 C258.21,372.16 259.59,368.23 260.41,364.22 C260.82215,361.846529 260.999673,359.438251 260.94,357.03 C260.94,341.23 260.94,325.43 260.94,309.62 L260.94,302.43 L273.21,300.36 L273.21,370.57 L279.65,371.57 L279.65,376.71 C272.14,380.81 266.39,379.42 261.25,372.07 C260.53,373.29 259.86,374.36 259.25,375.47 C256.15,381.07 251.44,383.57 245.06,383.01 C240.32,382.6 236.39,379.55 236.26,374.88 C235.94,363.62 236.15,352.35 236.15,341.05 L241.76,337.81 C240.875964,337.253293 240.054548,336.602865 239.31,335.87 C237.94,334.14 235.79,332.38 235.61,330.48 C234.994722,325.264751 234.994722,319.995249 235.61,314.78 C236.46,309.33 241.34,305.57 247.04,305.04 Z M171.03,316.54 L182.92,314.54 C183.06,316.87 183.27,318.76 183.27,320.65 C183.27,339.93 183.27,359.21 183.32,378.5 C183.433772,380.718122 183.670805,382.9282 184.03,385.12 L190.03,385.76 C190.13,387.71 190.23,389.7 190.34,391.92 C184.02,394.6 178.41,394.24 173.92,390.63 C169.39,392.78 165.55,395.21 161.35,396.45 C155.12,398.29 149.98,394.45 149.01,388.05 C148.826536,386.708049 148.742973,385.354327 148.76,384 C148.76,367.58 148.76,351.16 148.76,334.74 C148.76,329.74 149.88,325.17 153.76,321.66 C157.21,318.51 161.15,317.35 166.62,319.03 C160.42,323.34 161.35,329.4 161.34,335.16 C161.34,350.826667 161.34,366.493333 161.34,382.16 C161.34,384.77 160.85,387.77 164.34,389.16 C167.61,389.16 169.55,387.27 170.34,384.22 C170.844514,382.185339 171.096412,380.096268 171.09,378 C171.15,359.62 171.17,341.24 171.15,322.86 L171.03,316.54 Z M142.46,364.66 L136.23,368.29 C143.06,371.11 143.78,376.45 143.41,382.29 C143.27,384.39 143.49,386.52 143.31,388.61 C142.79,394.91 138.13,399.89 131.18,400.92 L131.18,394.79 C131.18,391.33 131.18,387.86 131.18,384.4 C131.11,376.89 129.27,374.78 121.6,373.74 C120.53,367.29 127.73,367.28 130.21,362.27 C130.14,352.51 130.5,341.6 130,331.02 C125.44,329.53 123.71,330.02 121.53,333.23 C118.734477,337.360478 117.259378,342.242601 117.3,347.23 C117.3,363.81 117.3,380.383333 117.3,396.95 L117.3,403.24 L105.5,405.46 C105.31,403.04 105.05,401.17 105.05,399.3 C105.05,379.71 105.05,360.12 105,340.54 C104.903302,338.611495 104.709724,336.689069 104.42,334.78 L98.86,334.41 L98.58,329.11 C106.14,325.04 111.72,326.37 117.24,333.53 C118.03,332.18 118.74,330.91 119.5,329.67 C121.256923,326.459276 124.217343,324.077991 127.73,323.05 C136.17,320.72 142.34,325.12 142.43,333.75 C142.54,344.05 142.46,354.28 142.46,364.66 Z M211.69,386.7 C217.31,383.03 217.26,378.06 217.25,373.02 C217.25,356.77 217.25,340.51 217.18,324.25 C217.016657,321.895525 216.682443,319.556032 216.18,317.25 C211.28,316.73 209.73,317.34 208.57,320.64 C207.881418,322.774761 207.543699,325.007088 207.57,327.25 C207.48,345.77 207.49,364.25 207.45,382.8 C207.45,384.73 207.29,386.66 207.18,389.15 L195.58,391.28 C195.43,388.82 195.22,386.93 195.21,385.04 C195.21,366.38 195.21,347.71 195.21,329.04 C195.21,326.39 194.78,323.74 194.54,320.95 L188.54,319.86 L188.54,313.67 C194.61,311.26 200.12,311.44 204.79,315.49 C208.35,313.49 211.51,311.08 215.07,309.79 C224.56,306.36 229.74,313.17 229.6,320.14 C229.26,337.89 229.6,355.66 229.44,373.42 C229.36,382.98 222.11,388.76 211.69,386.7 Z M60.21,412.47 L71.32,410.58 L72.97,417.32 C76.55,418.04 77.49,416.01 77.73,413.6 C77.97,411.19 77.83,408.49 77.83,405.93 C77.83,395.7 78.14,385.45 77.74,375.23 C77.41,366.64 80.74,361.05 89.74,358.32 C88.27,357.56 87.34,357.04 86.38,356.59 C80.8,353.97 77.84,349.69 77.86,343.42 C77.86,340.87 78.14,338.2 77.49,335.8 C76.75,333.02 75.13,330.47 73.8,327.63 C78.16,327.54 82.35,328.26 86.06,330.84 C88.6842522,332.461153 90.2348265,335.367525 90.12,338.45 C90.06,340.45 90.21,342.37 90.12,344.32 C89.82,350.24 90.77,355.32 97.98,356.43 L97.83,359.6 C91.41,360.82 90.01,365.18 90.1,370.95 C90.28,383.44 90.02,395.95 90.1,408.43 C90.16,413.87 87.84,418.01 83.19,420.16 C78.9831501,422.156915 74.4761983,423.447511 69.85,423.98 C63.78,424.57 59.85,419.74 60.21,412.47 Z M318.26,293.32 L307.26,295.24 C306.5,292.56 305.88,290.36 305.26,288.12 C301.77,288.12 300.84,289.97 300.74,292.44 C300.64,295.15 300.74,297.86 300.74,300.57 C300.74,310.21 300.74,319.843333 300.74,329.47 C300.74,340.68 299.02,343.32 288.62,347.75 C290.24,348.45 291.72,348.97 293.09,349.7 C298.38,352.54 300.84,357.02 300.74,362.99 C300.64,368.27 300.28,373.65 305.05,377.86 C299.54,378.02 294.41,377.53 290.66,373.29 C289.533427,371.744133 288.842702,369.924073 288.66,368.02 C288.409849,365.774979 288.379705,363.510885 288.57,361.26 C288.81,355.47 287.63,350.63 280.83,349.42 C280.76,348.33 280.7,347.48 280.62,346.3 C287.86,344.95 288.62,339.75 288.57,333.71 C288.41,321.71 288.7,309.62 288.5,297.58 C288.41,291.72 290.97,287.58 295.96,285.27 C299.8189,283.658877 303.868666,282.549813 308.01,281.97 C313.49,281.04 319.14,285.61 318.26,293.32 Z M318.63,366.34 C318.02,368.61 317.89,370.81 316.89,372.49 C315.037509,375.442143 311.222266,376.466808 308.14,374.84 C304.871182,373.144503 303.542244,369.157689 305.14,365.84 C306.185302,363.563586 307.939403,361.686699 310.14,360.49 C315.58,357.7 324.31,359.83 328.41,364.41 C332.19,368.64 332.41,375.09 327.95,379.05 C324.899233,381.92476 321.232902,384.065733 317.23,385.31 C311.05,386.97 304.55,387.56 298.15,388.21 C292.33,388.8 286.42,388.6 280.61,389.21 C276.035355,389.617196 271.829624,391.888218 268.98,395.49 C265.83,399.49 266.8,403.29 271.74,405.71 C271.86,404.48 271.89,403.37 272.08,402.28 C272.83043,398.564734 276.319321,396.057093 280.08,396.53 C283.55,396.96 285.67,399.68 285.59,403.59 C285.449448,408.154455 282.042168,411.954395 277.52,412.59 C272.693061,413.511413 267.703994,412.288781 263.85,409.24 C258.09,404.76 257.34,396.72 262.85,391.99 C265.991192,389.208779 269.769173,387.244229 273.85,386.27 C281.46,384.73 289.31,384.27 297.07,383.54 C301.99,383.04 306.97,382.99 311.84,382.2 C315.772966,381.560913 319.283306,379.366049 321.58,376.11 C324.56,371.98 323.29,368.19 318.63,366.34 Z M60.23,339.57 C60.1550134,338.825776 60.1216282,338.077946 60.13,337.33 C60.43,333.07 63.95,329.86 67.88,330.23 C69.7994135,330.359589 71.5603822,331.340491 72.6809371,332.904236 C73.801492,334.467981 74.1642772,336.450798 73.67,338.31 C73.1378075,340.750893 71.7949099,342.939711 69.86,344.52 C63.86,348.89 52.42,345.93 48.76,339.44 C45.9,334.38 47.28,328.79 52.48,324.73 C57.68,320.67 64.05,318.91 70.48,318.27 C77.2,317.62 84,317.8 90.74,317.27 C94.6,316.97 98.65,316.61 102.18,315.18 C105.335276,313.830622 108.090268,311.69206 110.18,308.97 C113.01,305.28 111.37,301.86 107.55,300.44 C106.1,303.04 105.11,305.83 103.28,307.83 C101.45,309.83 98.68,309.9 96.17,308.48 C93.66,307.06 92.76,304.75 92.85,302.02 C93.01,297.38 96.85,293.57 101.97,292.96 C106.517812,292.391638 111.100719,293.702588 114.66,296.59 C121.2,301.71 120.86,310.37 113.94,315.43 C108.67,319.28 102.47,320.73 96.16,321.32 C89.59,321.94 82.94,321.8 76.35,322.32 C72.4671522,322.574833 68.6168703,323.194226 64.85,324.17 C61.1233399,325.07081 57.9582415,327.519214 56.15,330.9 C54.07,334.87 55.39,337.76 60.23,339.57 Z M273.04,284.36 L273.04,295.36 L261.42,297.13 L261.42,286.53 L273.04,284.36 Z M105.39,410.44 L116.84,408.74 L116.84,419.32 L105.39,421.43 L105.39,410.44 Z" id="Combined-Shape"></path>
        </g>
    </g>
</svg>